<?xml version="1.0" encoding="UTF-8" standalone="no"?>
<!DOCTYPE svg PUBLIC "-//W3C//DTD SVG 1.1//EN"
 "http://www.w3.org/Graphics/SVG/1.1/DTD/svg11.dtd">
<!-- Generated by graphviz version 2.38.0 (20140413.2041)
 -->
<!-- Title: models_diagram Pages: 1 -->
<svg width="1844pt" height="1455pt"
 viewBox="0.00 0.00 1843.60 1455.00" xmlns="http://www.w3.org/2000/svg" xmlns:xlink="http://www.w3.org/1999/xlink">
<g id="graph0" class="graph" transform="scale(1 1) rotate(0) translate(4 1451)">
<title>models_diagram</title>
<polygon fill="white" stroke="none" points="-4,4 -4,-1451 1839.6,-1451 1839.6,4 -4,4"/>
<!-- Art -->
<g id="node1" class="node"><title>Art</title>
<path fill="none" stroke="black" d="M971.546,-1044.5C971.546,-1044.5 1080.56,-1044.5 1080.56,-1044.5 1086.56,-1044.5 1092.56,-1050.5 1092.56,-1056.5 1092.56,-1056.5 1092.56,-1132.5 1092.56,-1132.5 1092.56,-1138.5 1086.56,-1144.5 1080.56,-1144.5 1080.56,-1144.5 971.546,-1144.5 971.546,-1144.5 965.546,-1144.5 959.546,-1138.5 959.546,-1132.5 959.546,-1132.5 959.546,-1056.5 959.546,-1056.5 959.546,-1050.5 965.546,-1044.5 971.546,-1044.5"/>
<text text-anchor="middle" x="1026.05" y="-1129.3" font-family="Times,serif" font-size="14.00">Art</text>
<polyline fill="none" stroke="black" points="959.546,-1122.5 1092.56,-1122.5 "/>
<text text-anchor="start" x="967.546" y="-1107.3" font-family="Times,serif" font-size="14.00">id :integer</text>
<text text-anchor="start" x="967.546" y="-1093.3" font-family="Times,serif" font-size="14.00">nom :string</text>
<text text-anchor="start" x="967.546" y="-1079.3" font-family="Times,serif" font-size="14.00">description :text</text>
<text text-anchor="start" x="967.546" y="-1065.3" font-family="Times,serif" font-size="14.00">created_at :datetime</text>
<text text-anchor="start" x="967.546" y="-1051.3" font-family="Times,serif" font-size="14.00">updated_at :datetime</text>
</g>
<!-- Personnage -->
<g id="node20" class="node"><title>Personnage</title>
<path fill="none" stroke="black" d="M901.381,-193.5C901.381,-193.5 1054.72,-193.5 1054.72,-193.5 1060.72,-193.5 1066.72,-199.5 1066.72,-205.5 1066.72,-205.5 1066.72,-981.5 1066.72,-981.5 1066.72,-987.5 1060.72,-993.5 1054.72,-993.5 1054.72,-993.5 901.381,-993.5 901.381,-993.5 895.381,-993.5 889.381,-987.5 889.381,-981.5 889.381,-981.5 889.381,-205.5 889.381,-205.5 889.381,-199.5 895.381,-193.5 901.381,-193.5"/>
<text text-anchor="middle" x="978.052" y="-978.3" font-family="Times,serif" font-size="14.00">Personnage</text>
<polyline fill="none" stroke="black" points="889.381,-971.5 1066.72,-971.5 "/>
<text text-anchor="start" x="897.381" y="-956.3" font-family="Times,serif" font-size="14.00">id :integer</text>
<text text-anchor="start" x="897.381" y="-942.3" font-family="Times,serif" font-size="14.00">nom :string</text>
<text text-anchor="start" x="897.381" y="-928.3" font-family="Times,serif" font-size="14.00">prenom :string</text>
<text text-anchor="start" x="897.381" y="-914.3" font-family="Times,serif" font-size="14.00">date_naissance :datetime</text>
<text text-anchor="start" x="897.381" y="-900.3" font-family="Times,serif" font-size="14.00">description :text</text>
<text text-anchor="start" x="897.381" y="-886.3" font-family="Times,serif" font-size="14.00">volonte :integer</text>
<text text-anchor="start" x="897.381" y="-872.3" font-family="Times,serif" font-size="14.00">background :text</text>
<text text-anchor="start" x="897.381" y="-858.3" font-family="Times,serif" font-size="14.00">force :integer</text>
<text text-anchor="start" x="897.381" y="-844.3" font-family="Times,serif" font-size="14.00">dexterite :integer</text>
<text text-anchor="start" x="897.381" y="-830.3" font-family="Times,serif" font-size="14.00">vigueur :integer</text>
<text text-anchor="start" x="897.381" y="-816.3" font-family="Times,serif" font-size="14.00">charisme :integer</text>
<text text-anchor="start" x="897.381" y="-802.3" font-family="Times,serif" font-size="14.00">manipulation :integer</text>
<text text-anchor="start" x="897.381" y="-788.3" font-family="Times,serif" font-size="14.00">apparence :integer</text>
<text text-anchor="start" x="897.381" y="-774.3" font-family="Times,serif" font-size="14.00">perception :integer</text>
<text text-anchor="start" x="897.381" y="-760.3" font-family="Times,serif" font-size="14.00">intelligence :integer</text>
<text text-anchor="start" x="897.381" y="-746.3" font-family="Times,serif" font-size="14.00">astuce :integer</text>
<text text-anchor="start" x="897.381" y="-732.3" font-family="Times,serif" font-size="14.00">paradygme :text</text>
<text text-anchor="start" x="897.381" y="-718.3" font-family="Times,serif" font-size="14.00">xps :integer</text>
<text text-anchor="start" x="897.381" y="-704.3" font-family="Times,serif" font-size="14.00">bonus :integer</text>
<text text-anchor="start" x="897.381" y="-690.3" font-family="Times,serif" font-size="14.00">date_mort :datetime</text>
<text text-anchor="start" x="897.381" y="-676.3" font-family="Times,serif" font-size="14.00">points_conscience :integer</text>
<text text-anchor="start" x="897.381" y="-662.3" font-family="Times,serif" font-size="14.00">points_maitrise :integer</text>
<text text-anchor="start" x="897.381" y="-648.3" font-family="Times,serif" font-size="14.00">points_courage :integer</text>
<text text-anchor="start" x="897.381" y="-634.3" font-family="Times,serif" font-size="14.00">points_dynamique :integer</text>
<text text-anchor="start" x="897.381" y="-620.3" font-family="Times,serif" font-size="14.00">points_statique :integer</text>
<text text-anchor="start" x="897.381" y="-606.3" font-family="Times,serif" font-size="14.00">points_entropique :integer</text>
<text text-anchor="start" x="897.381" y="-592.3" font-family="Times,serif" font-size="14.00">entelechie :integer</text>
<text text-anchor="start" x="897.381" y="-578.3" font-family="Times,serif" font-size="14.00">created_at :datetime</text>
<text text-anchor="start" x="897.381" y="-564.3" font-family="Times,serif" font-size="14.00">updated_at :datetime</text>
<text text-anchor="start" x="897.381" y="-550.3" font-family="Times,serif" font-size="14.00">spec_force :string</text>
<text text-anchor="start" x="897.381" y="-536.3" font-family="Times,serif" font-size="14.00">spec_dexterite :string</text>
<text text-anchor="start" x="897.381" y="-522.3" font-family="Times,serif" font-size="14.00">spec_vigueur :string</text>
<text text-anchor="start" x="897.381" y="-508.3" font-family="Times,serif" font-size="14.00">spec_charisme :string</text>
<text text-anchor="start" x="897.381" y="-494.3" font-family="Times,serif" font-size="14.00">spec_manipulation :string</text>
<text text-anchor="start" x="897.381" y="-480.3" font-family="Times,serif" font-size="14.00">spec_apparence :string</text>
<text text-anchor="start" x="897.381" y="-466.3" font-family="Times,serif" font-size="14.00">spec_perception :string</text>
<text text-anchor="start" x="897.381" y="-452.3" font-family="Times,serif" font-size="14.00">spec_intelligence :string</text>
<text text-anchor="start" x="897.381" y="-438.3" font-family="Times,serif" font-size="14.00">spec_astuce :string</text>
<text text-anchor="start" x="897.381" y="-424.3" font-family="Times,serif" font-size="14.00">reste_xps :integer</text>
<text text-anchor="start" x="897.381" y="-410.3" font-family="Times,serif" font-size="14.00">type_perso :string</text>
<text text-anchor="start" x="897.381" y="-396.3" font-family="Times,serif" font-size="14.00">nature :string</text>
<text text-anchor="start" x="897.381" y="-382.3" font-family="Times,serif" font-size="14.00">attitude :string</text>
<text text-anchor="start" x="897.381" y="-368.3" font-family="Times,serif" font-size="14.00">rang :integer</text>
<text text-anchor="start" x="897.381" y="-354.3" font-family="Times,serif" font-size="14.00">points_sang :integer</text>
<text text-anchor="start" x="897.381" y="-340.3" font-family="Times,serif" font-size="14.00">glamour :integer</text>
<text text-anchor="start" x="897.381" y="-326.3" font-family="Times,serif" font-size="14.00">banalite :integer</text>
<text text-anchor="start" x="897.381" y="-312.3" font-family="Times,serif" font-size="14.00">niveau_voie :integer</text>
<text text-anchor="start" x="897.381" y="-298.3" font-family="Times,serif" font-size="14.00">voie :string</text>
<text text-anchor="start" x="897.381" y="-284.3" font-family="Times,serif" font-size="14.00">tradition :string</text>
<text text-anchor="start" x="897.381" y="-270.3" font-family="Times,serif" font-size="14.00">clan :string</text>
<text text-anchor="start" x="897.381" y="-256.3" font-family="Times,serif" font-size="14.00">caracteristique_base :string</text>
<text text-anchor="start" x="897.381" y="-242.3" font-family="Times,serif" font-size="14.00">caracteristique_bonus :string</text>
<text text-anchor="start" x="897.381" y="-228.3" font-family="Times,serif" font-size="14.00">reste_bonus :string</text>
<text text-anchor="start" x="897.381" y="-214.3" font-family="Times,serif" font-size="14.00">has_base :boolean</text>
<text text-anchor="start" x="897.381" y="-200.3" font-family="Times,serif" font-size="14.00">has_bonus :boolean</text>
</g>
<!-- Art&#45;&gt;Personnage -->
<g id="edge1" class="edge"><title>Art&#45;&gt;Personnage</title>
<path fill="none" stroke="#0ad1e6" d="M1020.33,-1034.03C1019.44,-1024.76 1018.47,-1014.63 1017.42,-1003.81"/>
<polygon fill="#0ad1e6" stroke="#0ad1e6" points="1020.36,-1034.33 1016.84,-1044.72 1020.84,-1039.31 1021.32,-1044.29 1021.32,-1044.29 1021.32,-1044.29 1020.84,-1039.31 1025.8,-1043.86 1020.36,-1034.33 1020.36,-1034.33"/>
<polygon fill="#0ad1e6" stroke="#0ad1e6" points="1017.41,-1003.63 1020.93,-993.247 1016.93,-998.655 1016.45,-993.678 1016.45,-993.678 1016.45,-993.678 1016.93,-998.655 1011.97,-994.109 1017.41,-1003.63 1017.41,-1003.63"/>
</g>
<!-- ArtsPersonnages -->
<g id="node2" class="node"><title>ArtsPersonnages</title>
<path fill="none" stroke="black" d="M1052.1,-1216.5C1052.1,-1216.5 1172,-1216.5 1172,-1216.5 1178,-1216.5 1184,-1222.5 1184,-1228.5 1184,-1228.5 1184,-1290.5 1184,-1290.5 1184,-1296.5 1178,-1302.5 1172,-1302.5 1172,-1302.5 1052.1,-1302.5 1052.1,-1302.5 1046.1,-1302.5 1040.1,-1296.5 1040.1,-1290.5 1040.1,-1290.5 1040.1,-1228.5 1040.1,-1228.5 1040.1,-1222.5 1046.1,-1216.5 1052.1,-1216.5"/>
<text text-anchor="middle" x="1112.05" y="-1287.3" font-family="Times,serif" font-size="14.00">ArtsPersonnages</text>
<polyline fill="none" stroke="black" points="1040.1,-1280.5 1184,-1280.5 "/>
<text text-anchor="start" x="1048.1" y="-1265.3" font-family="Times,serif" font-size="14.00">id :integer</text>
<text text-anchor="start" x="1048.1" y="-1251.3" font-family="Times,serif" font-size="14.00">personnage_id :integer</text>
<text text-anchor="start" x="1048.1" y="-1237.3" font-family="Times,serif" font-size="14.00">art_id :integer</text>
<text text-anchor="start" x="1048.1" y="-1223.3" font-family="Times,serif" font-size="14.00">niveau :integer</text>
</g>
<!-- ArtsPersonnages&#45;&gt;Art -->
<g id="edge3" class="edge"><title>ArtsPersonnages&#45;&gt;Art</title>
<path fill="none" stroke="#014f06" d="M1084.95,-1207.14C1075.98,-1190.13 1065.93,-1171.08 1056.7,-1153.6"/>
<polygon fill="#014f06" stroke="#014f06" points="1085.01,-1207.25 1085.7,-1218.2 1087.35,-1211.68 1089.68,-1216.1 1089.68,-1216.1 1089.68,-1216.1 1087.35,-1211.68 1093.66,-1214 1085.01,-1207.25 1085.01,-1207.25"/>
<polygon fill="#014f06" stroke="#014f06" points="1056.63,-1153.46 1055.95,-1142.52 1054.3,-1149.04 1051.97,-1144.62 1051.97,-1144.62 1051.97,-1144.62 1054.3,-1149.04 1047.99,-1146.72 1056.63,-1153.46 1056.63,-1153.46"/>
</g>
<!-- ArtsPersonnages&#45;&gt;Personnage -->
<g id="edge2" class="edge"><title>ArtsPersonnages&#45;&gt;Personnage</title>
<path fill="none" stroke="#eb1348" d="M1113.22,-1205.94C1113.43,-1159.39 1111.73,-1089.76 1102.05,-1030 1094.07,-980.711 1082.41,-929.071 1069.4,-879.282"/>
<polygon fill="#eb1348" stroke="#eb1348" points="1113.22,-1206.09 1108.64,-1216.05 1113.18,-1211.09 1113.14,-1216.09 1113.14,-1216.09 1113.14,-1216.09 1113.18,-1211.09 1117.64,-1216.12 1113.22,-1206.09 1113.22,-1206.09"/>
<polygon fill="#eb1348" stroke="#eb1348" points="1069.33,-879.019 1071.13,-868.202 1068.06,-874.185 1066.78,-869.35 1066.78,-869.35 1066.78,-869.35 1068.06,-874.185 1062.43,-870.498 1069.33,-879.019 1069.33,-879.019"/>
</g>
<!-- Atout -->
<g id="node3" class="node"><title>Atout</title>
<path fill="none" stroke="black" d="M1161.55,-1030.5C1161.55,-1030.5 1270.56,-1030.5 1270.56,-1030.5 1276.56,-1030.5 1282.56,-1036.5 1282.56,-1042.5 1282.56,-1042.5 1282.56,-1146.5 1282.56,-1146.5 1282.56,-1152.5 1276.56,-1158.5 1270.56,-1158.5 1270.56,-1158.5 1161.55,-1158.5 1161.55,-1158.5 1155.55,-1158.5 1149.55,-1152.5 1149.55,-1146.5 1149.55,-1146.5 1149.55,-1042.5 1149.55,-1042.5 1149.55,-1036.5 1155.55,-1030.5 1161.55,-1030.5"/>
<text text-anchor="middle" x="1216.05" y="-1143.3" font-family="Times,serif" font-size="14.00">Atout</text>
<polyline fill="none" stroke="black" points="1149.55,-1136.5 1282.56,-1136.5 "/>
<text text-anchor="start" x="1157.55" y="-1121.3" font-family="Times,serif" font-size="14.00">id :integer</text>
<text text-anchor="start" x="1157.55" y="-1107.3" font-family="Times,serif" font-size="14.00">nom :string</text>
<text text-anchor="start" x="1157.55" y="-1093.3" font-family="Times,serif" font-size="14.00">description :text</text>
<text text-anchor="start" x="1157.55" y="-1079.3" font-family="Times,serif" font-size="14.00">cout :integer</text>
<text text-anchor="start" x="1157.55" y="-1065.3" font-family="Times,serif" font-size="14.00">type :boolean</text>
<text text-anchor="start" x="1157.55" y="-1051.3" font-family="Times,serif" font-size="14.00">created_at :datetime</text>
<text text-anchor="start" x="1157.55" y="-1037.3" font-family="Times,serif" font-size="14.00">updated_at :datetime</text>
</g>
<!-- Atout&#45;&gt;Personnage -->
<g id="edge4" class="edge"><title>Atout&#45;&gt;Personnage</title>
<path fill="none" stroke="#85486c" d="M1181.59,-1021.25C1152.71,-960.689 1110.08,-871.312 1071.29,-789.98"/>
<polygon fill="#85486c" stroke="#85486c" points="1181.6,-1021.28 1181.85,-1032.24 1183.76,-1025.79 1185.91,-1030.3 1185.91,-1030.3 1185.91,-1030.3 1183.76,-1025.79 1189.97,-1028.36 1181.6,-1021.28 1181.6,-1021.28"/>
<polygon fill="#85486c" stroke="#85486c" points="1071.12,-789.64 1070.88,-778.677 1068.97,-785.127 1066.82,-780.614 1066.82,-780.614 1066.82,-780.614 1068.97,-785.127 1062.76,-782.551 1071.12,-789.64 1071.12,-789.64"/>
</g>
<!-- AtoutsPersonnages -->
<g id="node4" class="node"><title>AtoutsPersonnages</title>
<path fill="none" stroke="black" d="M1232.1,-1223.5C1232.1,-1223.5 1352,-1223.5 1352,-1223.5 1358,-1223.5 1364,-1229.5 1364,-1235.5 1364,-1235.5 1364,-1283.5 1364,-1283.5 1364,-1289.5 1358,-1295.5 1352,-1295.5 1352,-1295.5 1232.1,-1295.5 1232.1,-1295.5 1226.1,-1295.5 1220.1,-1289.5 1220.1,-1283.5 1220.1,-1283.5 1220.1,-1235.5 1220.1,-1235.5 1220.1,-1229.5 1226.1,-1223.5 1232.1,-1223.5"/>
<text text-anchor="middle" x="1292.05" y="-1280.3" font-family="Times,serif" font-size="14.00">AtoutsPersonnages</text>
<polyline fill="none" stroke="black" points="1220.1,-1273.5 1364,-1273.5 "/>
<text text-anchor="start" x="1228.1" y="-1258.3" font-family="Times,serif" font-size="14.00">id :integer</text>
<text text-anchor="start" x="1228.1" y="-1244.3" font-family="Times,serif" font-size="14.00">personnage_id :integer</text>
<text text-anchor="start" x="1228.1" y="-1230.3" font-family="Times,serif" font-size="14.00">atout_id :integer</text>
</g>
<!-- AtoutsPersonnages&#45;&gt;Atout -->
<g id="edge6" class="edge"><title>AtoutsPersonnages&#45;&gt;Atout</title>
<path fill="none" stroke="#5be623" d="M1271.29,-1213.98C1264.65,-1199.74 1257.13,-1183.59 1249.81,-1167.9"/>
<polygon fill="#5be623" stroke="#5be623" points="1271.34,-1214.07 1271.48,-1225.03 1273.45,-1218.6 1275.56,-1223.13 1275.56,-1223.13 1275.56,-1223.13 1273.45,-1218.6 1279.64,-1221.23 1271.34,-1214.07 1271.34,-1214.07"/>
<polygon fill="#5be623" stroke="#5be623" points="1249.76,-1167.8 1249.61,-1156.83 1247.65,-1163.26 1245.53,-1158.73 1245.53,-1158.73 1245.53,-1158.73 1247.65,-1163.26 1241.46,-1160.63 1249.76,-1167.8 1249.76,-1167.8"/>
</g>
<!-- AtoutsPersonnages&#45;&gt;Personnage -->
<g id="edge5" class="edge"><title>AtoutsPersonnages&#45;&gt;Personnage</title>
<path fill="none" stroke="#957b5d" d="M1300.07,-1213.23C1306.57,-1166.2 1311.77,-1091.07 1292.05,-1030 1249.32,-897.669 1149.75,-771.672 1074.11,-689.568"/>
<polygon fill="#957b5d" stroke="#957b5d" points="1300.03,-1213.51 1294.13,-1222.75 1299.3,-1218.46 1298.58,-1223.4 1298.58,-1223.4 1298.58,-1223.4 1299.3,-1218.46 1303.03,-1224.06 1300.03,-1213.51 1300.03,-1213.51"/>
<polygon fill="#957b5d" stroke="#957b5d" points="1073.67,-689.091 1070.16,-678.7 1070.27,-685.426 1066.87,-681.76 1066.87,-681.76 1066.87,-681.76 1070.27,-685.426 1063.57,-684.821 1073.67,-689.091 1073.67,-689.091"/>
</g>
<!-- Capacite -->
<g id="node5" class="node"><title>Capacite</title>
<path fill="none" stroke="black" d="M1351.55,-1030.5C1351.55,-1030.5 1460.56,-1030.5 1460.56,-1030.5 1466.56,-1030.5 1472.56,-1036.5 1472.56,-1042.5 1472.56,-1042.5 1472.56,-1146.5 1472.56,-1146.5 1472.56,-1152.5 1466.56,-1158.5 1460.56,-1158.5 1460.56,-1158.5 1351.55,-1158.5 1351.55,-1158.5 1345.55,-1158.5 1339.55,-1152.5 1339.55,-1146.5 1339.55,-1146.5 1339.55,-1042.5 1339.55,-1042.5 1339.55,-1036.5 1345.55,-1030.5 1351.55,-1030.5"/>
<text text-anchor="middle" x="1406.05" y="-1143.3" font-family="Times,serif" font-size="14.00">Capacite</text>
<polyline fill="none" stroke="black" points="1339.55,-1136.5 1472.56,-1136.5 "/>
<text text-anchor="start" x="1347.55" y="-1121.3" font-family="Times,serif" font-size="14.00">id :integer</text>
<text text-anchor="start" x="1347.55" y="-1107.3" font-family="Times,serif" font-size="14.00">nom :string</text>
<text text-anchor="start" x="1347.55" y="-1093.3" font-family="Times,serif" font-size="14.00">description :text</text>
<text text-anchor="start" x="1347.55" y="-1079.3" font-family="Times,serif" font-size="14.00">primaire :boolean</text>
<text text-anchor="start" x="1347.55" y="-1065.3" font-family="Times,serif" font-size="14.00">created_at :datetime</text>
<text text-anchor="start" x="1347.55" y="-1051.3" font-family="Times,serif" font-size="14.00">updated_at :datetime</text>
<text text-anchor="start" x="1347.55" y="-1037.3" font-family="Times,serif" font-size="14.00">type_cap :string</text>
</g>
<!-- Capacite&#45;&gt;Personnage -->
<g id="edge7" class="edge"><title>Capacite&#45;&gt;Personnage</title>
<path fill="none" stroke="#dac4e0" d="M1345.18,-1022.53C1274.33,-939.927 1156.46,-802.509 1073.43,-705.7"/>
<polygon fill="#dac4e0" stroke="#dac4e0" points="1345.33,-1022.71 1348.43,-1033.23 1348.59,-1026.51 1351.85,-1030.3 1351.85,-1030.3 1351.85,-1030.3 1348.59,-1026.51 1355.26,-1027.37 1345.33,-1022.71 1345.33,-1022.71"/>
<polygon fill="#dac4e0" stroke="#dac4e0" points="1073.27,-705.517 1070.18,-694.997 1070.02,-701.721 1066.76,-697.926 1066.76,-697.926 1066.76,-697.926 1070.02,-701.721 1063.35,-700.856 1073.27,-705.517 1073.27,-705.517"/>
</g>
<!-- CapacitesPersonnages -->
<g id="node6" class="node"><title>CapacitesPersonnages</title>
<path fill="none" stroke="black" d="M1417.1,-1209.5C1417.1,-1209.5 1537,-1209.5 1537,-1209.5 1543,-1209.5 1549,-1215.5 1549,-1221.5 1549,-1221.5 1549,-1297.5 1549,-1297.5 1549,-1303.5 1543,-1309.5 1537,-1309.5 1537,-1309.5 1417.1,-1309.5 1417.1,-1309.5 1411.1,-1309.5 1405.1,-1303.5 1405.1,-1297.5 1405.1,-1297.5 1405.1,-1221.5 1405.1,-1221.5 1405.1,-1215.5 1411.1,-1209.5 1417.1,-1209.5"/>
<text text-anchor="middle" x="1477.05" y="-1294.3" font-family="Times,serif" font-size="14.00">CapacitesPersonnages</text>
<polyline fill="none" stroke="black" points="1405.1,-1287.5 1549,-1287.5 "/>
<text text-anchor="start" x="1413.1" y="-1272.3" font-family="Times,serif" font-size="14.00">id :integer</text>
<text text-anchor="start" x="1413.1" y="-1258.3" font-family="Times,serif" font-size="14.00">personnage_id :integer</text>
<text text-anchor="start" x="1413.1" y="-1244.3" font-family="Times,serif" font-size="14.00">capacite_id :integer</text>
<text text-anchor="start" x="1413.1" y="-1230.3" font-family="Times,serif" font-size="14.00">niveau :integer</text>
<text text-anchor="start" x="1413.1" y="-1216.3" font-family="Times,serif" font-size="14.00">specialite :string</text>
</g>
<!-- CapacitesPersonnages&#45;&gt;Capacite -->
<g id="edge9" class="edge"><title>CapacitesPersonnages&#45;&gt;Capacite</title>
<path fill="none" stroke="#53309b" d="M1451.4,-1199.62C1446.91,-1189.3 1442.19,-1178.46 1437.56,-1167.83"/>
<polygon fill="#53309b" stroke="#53309b" points="1451.56,-1199.98 1451.43,-1210.95 1453.56,-1204.57 1455.56,-1209.15 1455.56,-1209.15 1455.56,-1209.15 1453.56,-1204.57 1459.68,-1207.36 1451.56,-1199.98 1451.56,-1199.98"/>
<polygon fill="#53309b" stroke="#53309b" points="1437.51,-1167.73 1437.65,-1156.76 1435.52,-1163.15 1433.52,-1158.56 1433.52,-1158.56 1433.52,-1158.56 1435.52,-1163.15 1429.39,-1160.36 1437.51,-1167.73 1437.51,-1167.73"/>
</g>
<!-- CapacitesPersonnages&#45;&gt;Personnage -->
<g id="edge8" class="edge"><title>CapacitesPersonnages&#45;&gt;Personnage</title>
<path fill="none" stroke="#7fa1d6" d="M1494.9,-1199.65C1506.12,-1150.59 1513.23,-1080.77 1482.05,-1030 1463.54,-999.852 1440.11,-1014.19 1411.05,-994 1284.95,-906.386 1157.84,-784.145 1074.27,-698.018"/>
<polygon fill="#7fa1d6" stroke="#7fa1d6" points="1494.87,-1199.76 1488.16,-1208.43 1493.7,-1204.62 1492.53,-1209.48 1492.53,-1209.48 1492.53,-1209.48 1493.7,-1204.62 1496.91,-1210.54 1494.87,-1199.76 1494.87,-1199.76"/>
<polygon fill="#7fa1d6" stroke="#7fa1d6" points="1074.03,-697.769 1070.31,-687.453 1070.55,-694.175 1067.08,-690.582 1067.08,-690.582 1067.08,-690.582 1070.55,-694.175 1063.84,-693.711 1074.03,-697.769 1074.03,-697.769"/>
</g>
<!-- Combinaison -->
<g id="node7" class="node"><title>Combinaison</title>
<path fill="none" stroke="black" d="M120.546,-1202.5C120.546,-1202.5 229.557,-1202.5 229.557,-1202.5 235.557,-1202.5 241.557,-1208.5 241.557,-1214.5 241.557,-1214.5 241.557,-1304.5 241.557,-1304.5 241.557,-1310.5 235.557,-1316.5 229.557,-1316.5 229.557,-1316.5 120.546,-1316.5 120.546,-1316.5 114.546,-1316.5 108.546,-1310.5 108.546,-1304.5 108.546,-1304.5 108.546,-1214.5 108.546,-1214.5 108.546,-1208.5 114.546,-1202.5 120.546,-1202.5"/>
<text text-anchor="middle" x="175.052" y="-1301.3" font-family="Times,serif" font-size="14.00">Combinaison</text>
<polyline fill="none" stroke="black" points="108.546,-1294.5 241.557,-1294.5 "/>
<text text-anchor="start" x="116.546" y="-1279.3" font-family="Times,serif" font-size="14.00">id :integer</text>
<text text-anchor="start" x="116.546" y="-1265.3" font-family="Times,serif" font-size="14.00">nom :string</text>
<text text-anchor="start" x="116.546" y="-1251.3" font-family="Times,serif" font-size="14.00">description :text</text>
<text text-anchor="start" x="116.546" y="-1237.3" font-family="Times,serif" font-size="14.00">niveau :integer</text>
<text text-anchor="start" x="116.546" y="-1223.3" font-family="Times,serif" font-size="14.00">created_at :datetime</text>
<text text-anchor="start" x="116.546" y="-1209.3" font-family="Times,serif" font-size="14.00">updated_at :datetime</text>
</g>
<!-- Discipline -->
<g id="node10" class="node"><title>Discipline</title>
<path fill="none" stroke="black" d="M231.25,-1037.5C231.25,-1037.5 348.854,-1037.5 348.854,-1037.5 354.854,-1037.5 360.854,-1043.5 360.854,-1049.5 360.854,-1049.5 360.854,-1139.5 360.854,-1139.5 360.854,-1145.5 354.854,-1151.5 348.854,-1151.5 348.854,-1151.5 231.25,-1151.5 231.25,-1151.5 225.25,-1151.5 219.25,-1145.5 219.25,-1139.5 219.25,-1139.5 219.25,-1049.5 219.25,-1049.5 219.25,-1043.5 225.25,-1037.5 231.25,-1037.5"/>
<text text-anchor="middle" x="290.052" y="-1136.3" font-family="Times,serif" font-size="14.00">Discipline</text>
<polyline fill="none" stroke="black" points="219.25,-1129.5 360.854,-1129.5 "/>
<text text-anchor="start" x="227.25" y="-1114.3" font-family="Times,serif" font-size="14.00">id :integer</text>
<text text-anchor="start" x="227.25" y="-1100.3" font-family="Times,serif" font-size="14.00">nom :string</text>
<text text-anchor="start" x="227.25" y="-1086.3" font-family="Times,serif" font-size="14.00">description :text</text>
<text text-anchor="start" x="227.25" y="-1072.3" font-family="Times,serif" font-size="14.00">nom_discipline :string</text>
<text text-anchor="start" x="227.25" y="-1058.3" font-family="Times,serif" font-size="14.00">created_at :datetime</text>
<text text-anchor="start" x="227.25" y="-1044.3" font-family="Times,serif" font-size="14.00">updated_at :datetime</text>
</g>
<!-- Combinaison&#45;&gt;Discipline -->
<g id="edge10" class="edge"><title>Combinaison&#45;&gt;Discipline</title>
<path fill="none" stroke="#cdb6cb" d="M220.398,-1194.23C228.298,-1183.03 236.519,-1171.38 244.427,-1160.17"/>
<polygon fill="#cdb6cb" stroke="#cdb6cb" points="220.393,-1194.23 210.951,-1199.81 217.511,-1198.32 214.628,-1202.4 214.628,-1202.4 214.628,-1202.4 217.511,-1198.32 218.305,-1205 220.393,-1194.23 220.393,-1194.23"/>
<polygon fill="#cdb6cb" stroke="#cdb6cb" points="244.637,-1159.87 254.079,-1154.29 247.52,-1155.78 250.402,-1151.7 250.402,-1151.7 250.402,-1151.7 247.52,-1155.78 246.725,-1149.1 244.637,-1159.87 244.637,-1159.87"/>
</g>
<!-- Combinaison&#45;&gt;Personnage -->
<g id="edge11" class="edge"><title>Combinaison&#45;&gt;Personnage</title>
<path fill="none" stroke="#73bb8e" d="M170.453,-1192.18C170.348,-1143.3 177.413,-1077.35 210.052,-1030 373.803,-792.419 712.015,-668.756 879.56,-619.941"/>
<polygon fill="#73bb8e" stroke="#73bb8e" points="170.455,-1192.33 166.078,-1202.39 170.516,-1197.33 170.578,-1202.33 170.578,-1202.33 170.578,-1202.33 170.516,-1197.33 175.077,-1202.28 170.455,-1192.33 170.455,-1192.33"/>
<polygon fill="#73bb8e" stroke="#73bb8e" points="879.758,-619.884 890.614,-621.437 884.563,-618.499 889.367,-617.113 889.367,-617.113 889.367,-617.113 884.563,-618.499 888.12,-612.789 879.758,-619.884 879.758,-619.884"/>
</g>
<!-- CombinaisonsDisciplines -->
<g id="node8" class="node"><title>CombinaisonsDisciplines</title>
<path fill="none" stroke="black" d="M198.497,-1367.5C198.497,-1367.5 333.607,-1367.5 333.607,-1367.5 339.607,-1367.5 345.607,-1373.5 345.607,-1379.5 345.607,-1379.5 345.607,-1427.5 345.607,-1427.5 345.607,-1433.5 339.607,-1439.5 333.607,-1439.5 333.607,-1439.5 198.497,-1439.5 198.497,-1439.5 192.497,-1439.5 186.497,-1433.5 186.497,-1427.5 186.497,-1427.5 186.497,-1379.5 186.497,-1379.5 186.497,-1373.5 192.497,-1367.5 198.497,-1367.5"/>
<text text-anchor="middle" x="266.052" y="-1424.3" font-family="Times,serif" font-size="14.00">CombinaisonsDisciplines</text>
<polyline fill="none" stroke="black" points="186.497,-1417.5 345.607,-1417.5 "/>
<text text-anchor="start" x="194.497" y="-1402.3" font-family="Times,serif" font-size="14.00">id :integer</text>
<text text-anchor="start" x="194.497" y="-1388.3" font-family="Times,serif" font-size="14.00">combinaison_id :integer</text>
<text text-anchor="start" x="194.497" y="-1374.3" font-family="Times,serif" font-size="14.00">discipline_id :integer</text>
</g>
<!-- CombinaisonsDisciplines&#45;&gt;Combinaison -->
<g id="edge12" class="edge"><title>CombinaisonsDisciplines&#45;&gt;Combinaison</title>
<path fill="none" stroke="#dba9d3" d="M238.109,-1358.9C231.314,-1348.29 223.901,-1336.73 216.623,-1325.37"/>
<polygon fill="#dba9d3" stroke="#dba9d3" points="238.162,-1358.98 239.769,-1369.83 240.86,-1363.19 243.557,-1367.4 243.557,-1367.4 243.557,-1367.4 240.86,-1363.19 247.346,-1364.97 238.162,-1358.98 238.162,-1358.98"/>
<polygon fill="#dba9d3" stroke="#dba9d3" points="216.493,-1325.17 214.886,-1314.32 213.795,-1320.96 211.097,-1316.75 211.097,-1316.75 211.097,-1316.75 213.795,-1320.96 207.308,-1319.17 216.493,-1325.17 216.493,-1325.17"/>
</g>
<!-- CombinaisonsDisciplines&#45;&gt;Discipline -->
<g id="edge13" class="edge"><title>CombinaisonsDisciplines&#45;&gt;Discipline</title>
<path fill="none" stroke="#f4dd81" d="M269.593,-1357.2C273.633,-1305.53 280.273,-1220.58 284.889,-1161.54"/>
<polygon fill="#f4dd81" stroke="#f4dd81" points="269.584,-1357.31 264.319,-1366.93 269.195,-1362.3 268.805,-1367.28 268.805,-1367.28 268.805,-1367.28 269.195,-1362.3 273.291,-1367.63 269.584,-1357.31 269.584,-1357.31"/>
<polygon fill="#f4dd81" stroke="#f4dd81" points="284.889,-1161.54 290.155,-1151.92 285.279,-1156.55 285.669,-1151.57 285.669,-1151.57 285.669,-1151.57 285.279,-1156.55 281.182,-1151.22 284.889,-1161.54 284.889,-1161.54"/>
</g>
<!-- CombinaisonsPersonnages -->
<g id="node9" class="node"><title>CombinaisonsPersonnages</title>
<path fill="none" stroke="black" d="M12,-1367.5C12,-1367.5 154.104,-1367.5 154.104,-1367.5 160.104,-1367.5 166.104,-1373.5 166.104,-1379.5 166.104,-1379.5 166.104,-1427.5 166.104,-1427.5 166.104,-1433.5 160.104,-1439.5 154.104,-1439.5 154.104,-1439.5 12,-1439.5 12,-1439.5 6,-1439.5 0,-1433.5 0,-1427.5 0,-1427.5 0,-1379.5 0,-1379.5 0,-1373.5 6,-1367.5 12,-1367.5"/>
<text text-anchor="middle" x="83.0518" y="-1424.3" font-family="Times,serif" font-size="14.00">CombinaisonsPersonnages</text>
<polyline fill="none" stroke="black" points="0,-1417.5 166.104,-1417.5 "/>
<text text-anchor="start" x="8" y="-1402.3" font-family="Times,serif" font-size="14.00">id :integer</text>
<text text-anchor="start" x="8" y="-1388.3" font-family="Times,serif" font-size="14.00">personnage_id :integer</text>
<text text-anchor="start" x="8" y="-1374.3" font-family="Times,serif" font-size="14.00">combinaison_id :integer</text>
</g>
<!-- CombinaisonsPersonnages&#45;&gt;Combinaison -->
<g id="edge15" class="edge"><title>CombinaisonsPersonnages&#45;&gt;Combinaison</title>
<path fill="none" stroke="#6d9120" d="M111.302,-1358.9C118.172,-1348.29 125.666,-1336.73 133.023,-1325.37"/>
<polygon fill="#6d9120" stroke="#6d9120" points="111.231,-1359.01 102.017,-1364.95 108.512,-1363.2 105.793,-1367.4 105.793,-1367.4 105.793,-1367.4 108.512,-1363.2 109.57,-1369.85 111.231,-1359.01 111.231,-1359.01"/>
<polygon fill="#6d9120" stroke="#6d9120" points="133.173,-1325.14 142.387,-1319.19 135.892,-1320.94 138.61,-1316.75 138.61,-1316.75 138.61,-1316.75 135.892,-1320.94 134.834,-1314.3 133.173,-1325.14 133.173,-1325.14"/>
</g>
<!-- CombinaisonsPersonnages&#45;&gt;Personnage -->
<g id="edge14" class="edge"><title>CombinaisonsPersonnages&#45;&gt;Personnage</title>
<path fill="none" stroke="#b77b8e" d="M80.1183,-1357.06C77.7033,-1279.81 84.3009,-1122.32 168.052,-1030 369.608,-807.827 711.606,-677.192 879.336,-623.402"/>
<polygon fill="#b77b8e" stroke="#b77b8e" points="80.1319,-1357.42 76.0151,-1367.58 80.3219,-1362.41 80.5118,-1367.41 80.5118,-1367.41 80.5118,-1367.41 80.3219,-1362.41 85.0086,-1367.24 80.1319,-1357.42 80.1319,-1357.42"/>
<polygon fill="#b77b8e" stroke="#b77b8e" points="879.62,-623.312 890.514,-624.567 884.385,-621.796 889.149,-620.279 889.149,-620.279 889.149,-620.279 884.385,-621.796 887.785,-615.991 879.62,-623.312 879.62,-623.312"/>
</g>
<!-- Discipline&#45;&gt;Personnage -->
<g id="edge16" class="edge"><title>Discipline&#45;&gt;Personnage</title>
<path fill="none" stroke="#483a84" d="M369.425,-1035.93C496.139,-944.027 743.784,-764.413 880.894,-664.968"/>
<polygon fill="#483a84" stroke="#483a84" points="369.184,-1036.11 358.446,-1038.33 365.136,-1039.04 361.089,-1041.98 361.089,-1041.98 361.089,-1041.98 365.136,-1039.04 363.731,-1045.62 369.184,-1036.11 369.184,-1036.11"/>
<polygon fill="#483a84" stroke="#483a84" points="881.264,-664.7 892.001,-662.471 885.311,-661.764 889.359,-658.828 889.359,-658.828 889.359,-658.828 885.311,-661.764 886.716,-655.186 881.264,-664.7 881.264,-664.7"/>
</g>
<!-- DisciplinesPersonnages -->
<g id="node11" class="node"><title>DisciplinesPersonnages</title>
<path fill="none" stroke="black" d="M309.562,-1209.5C309.562,-1209.5 434.542,-1209.5 434.542,-1209.5 440.542,-1209.5 446.542,-1215.5 446.542,-1221.5 446.542,-1221.5 446.542,-1297.5 446.542,-1297.5 446.542,-1303.5 440.542,-1309.5 434.542,-1309.5 434.542,-1309.5 309.562,-1309.5 309.562,-1309.5 303.562,-1309.5 297.562,-1303.5 297.562,-1297.5 297.562,-1297.5 297.562,-1221.5 297.562,-1221.5 297.562,-1215.5 303.562,-1209.5 309.562,-1209.5"/>
<text text-anchor="middle" x="372.052" y="-1294.3" font-family="Times,serif" font-size="14.00">DisciplinesPersonnages</text>
<polyline fill="none" stroke="black" points="297.562,-1287.5 446.542,-1287.5 "/>
<text text-anchor="start" x="305.562" y="-1272.3" font-family="Times,serif" font-size="14.00">id :integer</text>
<text text-anchor="start" x="305.562" y="-1258.3" font-family="Times,serif" font-size="14.00">personnage_id :integer</text>
<text text-anchor="start" x="305.562" y="-1244.3" font-family="Times,serif" font-size="14.00">discipline_id :integer</text>
<text text-anchor="start" x="305.562" y="-1230.3" font-family="Times,serif" font-size="14.00">niveau :integer</text>
<text text-anchor="start" x="305.562" y="-1216.3" font-family="Times,serif" font-size="14.00">voie :string</text>
</g>
<!-- DisciplinesPersonnages&#45;&gt;Discipline -->
<g id="edge18" class="edge"><title>DisciplinesPersonnages&#45;&gt;Discipline</title>
<path fill="none" stroke="#009aa4" d="M342.632,-1200.02C336.178,-1187.19 329.307,-1173.53 322.733,-1160.46"/>
<polygon fill="#009aa4" stroke="#009aa4" points="342.732,-1200.22 343.207,-1211.17 344.979,-1204.69 347.227,-1209.15 347.227,-1209.15 347.227,-1209.15 344.979,-1204.69 351.247,-1207.13 342.732,-1200.22 342.732,-1200.22"/>
<polygon fill="#009aa4" stroke="#009aa4" points="322.732,-1160.46 322.258,-1149.51 320.485,-1156 318.238,-1151.53 318.238,-1151.53 318.238,-1151.53 320.485,-1156 314.218,-1153.55 322.732,-1160.46 322.732,-1160.46"/>
</g>
<!-- DisciplinesPersonnages&#45;&gt;Personnage -->
<g id="edge17" class="edge"><title>DisciplinesPersonnages&#45;&gt;Personnage</title>
<path fill="none" stroke="#46c363" d="M385.982,-1199.35C399.42,-1150.71 423.212,-1081.64 460.052,-1030 575.88,-867.639 765.859,-729.113 880.723,-654.201"/>
<polygon fill="#46c363" stroke="#46c363" points="385.957,-1199.45 379.007,-1207.93 384.654,-1204.28 383.351,-1209.1 383.351,-1209.1 383.351,-1209.1 384.654,-1204.28 387.696,-1210.28 385.957,-1199.45 385.957,-1199.45"/>
<polygon fill="#46c363" stroke="#46c363" points="880.814,-654.141 891.652,-652.472 885.008,-651.419 889.202,-648.697 889.202,-648.697 889.202,-648.697 885.008,-651.419 886.753,-644.922 880.814,-654.141 880.814,-654.141"/>
</g>
<!-- Historique -->
<g id="node12" class="node"><title>Historique</title>
<path fill="none" stroke="black" d="M514.546,-1209.5C514.546,-1209.5 623.557,-1209.5 623.557,-1209.5 629.557,-1209.5 635.557,-1215.5 635.557,-1221.5 635.557,-1221.5 635.557,-1297.5 635.557,-1297.5 635.557,-1303.5 629.557,-1309.5 623.557,-1309.5 623.557,-1309.5 514.546,-1309.5 514.546,-1309.5 508.546,-1309.5 502.546,-1303.5 502.546,-1297.5 502.546,-1297.5 502.546,-1221.5 502.546,-1221.5 502.546,-1215.5 508.546,-1209.5 514.546,-1209.5"/>
<text text-anchor="middle" x="569.052" y="-1294.3" font-family="Times,serif" font-size="14.00">Historique</text>
<polyline fill="none" stroke="black" points="502.546,-1287.5 635.557,-1287.5 "/>
<text text-anchor="start" x="510.546" y="-1272.3" font-family="Times,serif" font-size="14.00">id :integer</text>
<text text-anchor="start" x="510.546" y="-1258.3" font-family="Times,serif" font-size="14.00">nom :string</text>
<text text-anchor="start" x="510.546" y="-1244.3" font-family="Times,serif" font-size="14.00">description :text</text>
<text text-anchor="start" x="510.546" y="-1230.3" font-family="Times,serif" font-size="14.00">created_at :datetime</text>
<text text-anchor="start" x="510.546" y="-1216.3" font-family="Times,serif" font-size="14.00">updated_at :datetime</text>
</g>
<!-- Lieu -->
<g id="node15" class="node"><title>Lieu</title>
<path fill="none" stroke="black" d="M591.546,-1037.5C591.546,-1037.5 700.557,-1037.5 700.557,-1037.5 706.557,-1037.5 712.557,-1043.5 712.557,-1049.5 712.557,-1049.5 712.557,-1139.5 712.557,-1139.5 712.557,-1145.5 706.557,-1151.5 700.557,-1151.5 700.557,-1151.5 591.546,-1151.5 591.546,-1151.5 585.546,-1151.5 579.546,-1145.5 579.546,-1139.5 579.546,-1139.5 579.546,-1049.5 579.546,-1049.5 579.546,-1043.5 585.546,-1037.5 591.546,-1037.5"/>
<text text-anchor="middle" x="646.052" y="-1136.3" font-family="Times,serif" font-size="14.00">Lieu</text>
<polyline fill="none" stroke="black" points="579.546,-1129.5 712.557,-1129.5 "/>
<text text-anchor="start" x="587.546" y="-1114.3" font-family="Times,serif" font-size="14.00">id :integer</text>
<text text-anchor="start" x="587.546" y="-1100.3" font-family="Times,serif" font-size="14.00">nom :string</text>
<text text-anchor="start" x="587.546" y="-1086.3" font-family="Times,serif" font-size="14.00">description :string</text>
<text text-anchor="start" x="587.546" y="-1072.3" font-family="Times,serif" font-size="14.00">type :string</text>
<text text-anchor="start" x="587.546" y="-1058.3" font-family="Times,serif" font-size="14.00">created_at :datetime</text>
<text text-anchor="start" x="587.546" y="-1044.3" font-family="Times,serif" font-size="14.00">updated_at :datetime</text>
</g>
<!-- Historique&#45;&gt;Lieu -->
<g id="edge20" class="edge"><title>Historique&#45;&gt;Lieu</title>
<path fill="none" stroke="#f67902" d="M596.677,-1200.02C602.68,-1187.31 609.066,-1173.79 615.185,-1160.84"/>
<polygon fill="#f67902" stroke="#f67902" points="596.635,-1200.11 588.294,-1207.23 594.499,-1204.63 592.363,-1209.15 592.363,-1209.15 592.363,-1209.15 594.499,-1204.63 596.432,-1211.07 596.635,-1200.11 596.635,-1200.11"/>
<polygon fill="#f67902" stroke="#f67902" points="615.312,-1160.57 623.653,-1153.45 617.448,-1156.05 619.584,-1151.53 619.584,-1151.53 619.584,-1151.53 617.448,-1156.05 615.515,-1149.61 615.312,-1160.57 615.312,-1160.57"/>
</g>
<!-- Historique&#45;&gt;Personnage -->
<g id="edge19" class="edge"><title>Historique&#45;&gt;Personnage</title>
<path fill="none" stroke="#bbc6c2" d="M557.744,-1199.16C551.375,-1151.67 548.468,-1084.26 570.052,-1030 632.689,-872.534 781.849,-738.499 881.394,-662.238"/>
<polygon fill="#bbc6c2" stroke="#bbc6c2" points="557.776,-1199.39 554.74,-1209.92 558.485,-1204.34 559.194,-1209.29 559.194,-1209.29 559.194,-1209.29 558.485,-1204.34 563.649,-1208.65 557.776,-1199.39 557.776,-1199.39"/>
<polygon fill="#bbc6c2" stroke="#bbc6c2" points="881.411,-662.225 892.094,-659.752 885.39,-659.198 889.37,-656.17 889.37,-656.17 889.37,-656.17 885.39,-659.198 886.645,-652.589 881.411,-662.225 881.411,-662.225"/>
</g>
<!-- HistoriquesLieus -->
<g id="node13" class="node"><title>HistoriquesLieus</title>
<path fill="none" stroke="black" d="M599.981,-1360.5C599.981,-1360.5 712.123,-1360.5 712.123,-1360.5 718.123,-1360.5 724.123,-1366.5 724.123,-1372.5 724.123,-1372.5 724.123,-1434.5 724.123,-1434.5 724.123,-1440.5 718.123,-1446.5 712.123,-1446.5 712.123,-1446.5 599.981,-1446.5 599.981,-1446.5 593.981,-1446.5 587.981,-1440.5 587.981,-1434.5 587.981,-1434.5 587.981,-1372.5 587.981,-1372.5 587.981,-1366.5 593.981,-1360.5 599.981,-1360.5"/>
<text text-anchor="middle" x="656.052" y="-1431.3" font-family="Times,serif" font-size="14.00">HistoriquesLieus</text>
<polyline fill="none" stroke="black" points="587.981,-1424.5 724.123,-1424.5 "/>
<text text-anchor="start" x="595.981" y="-1409.3" font-family="Times,serif" font-size="14.00">id :integer</text>
<text text-anchor="start" x="595.981" y="-1395.3" font-family="Times,serif" font-size="14.00">historique_id :integer</text>
<text text-anchor="start" x="595.981" y="-1381.3" font-family="Times,serif" font-size="14.00">lieu_id :integer</text>
<text text-anchor="start" x="595.981" y="-1367.3" font-family="Times,serif" font-size="14.00">niveau :integer</text>
</g>
<!-- HistoriquesLieus&#45;&gt;Historique -->
<g id="edge21" class="edge"><title>HistoriquesLieus&#45;&gt;Historique</title>
<path fill="none" stroke="#8c6018" d="M624.796,-1351.48C618.194,-1340.71 611.182,-1329.26 604.44,-1318.26"/>
<polygon fill="#8c6018" stroke="#8c6018" points="624.96,-1351.75 626.347,-1362.63 627.572,-1356.02 630.184,-1360.28 630.184,-1360.28 630.184,-1360.28 627.572,-1356.02 634.022,-1357.93 624.96,-1351.75 624.96,-1351.75"/>
<polygon fill="#8c6018" stroke="#8c6018" points="604.328,-1318.08 602.941,-1307.2 601.716,-1313.81 599.104,-1309.55 599.104,-1309.55 599.104,-1309.55 601.716,-1313.81 595.267,-1311.9 604.328,-1318.08 604.328,-1318.08"/>
</g>
<!-- HistoriquesLieus&#45;&gt;Lieu -->
<g id="edge22" class="edge"><title>HistoriquesLieus&#45;&gt;Lieu</title>
<path fill="none" stroke="#85507b" d="M654.348,-1350.19C652.654,-1298.19 650.051,-1218.27 648.213,-1161.84"/>
<polygon fill="#85507b" stroke="#85507b" points="654.357,-1350.46 650.185,-1360.6 654.519,-1355.46 654.682,-1360.46 654.682,-1360.46 654.682,-1360.46 654.519,-1355.46 659.18,-1360.31 654.357,-1350.46 654.357,-1350.46"/>
<polygon fill="#85507b" stroke="#85507b" points="648.205,-1161.59 652.377,-1151.45 648.042,-1156.59 647.879,-1151.59 647.879,-1151.59 647.879,-1151.59 648.042,-1156.59 643.381,-1151.74 648.205,-1161.59 648.205,-1161.59"/>
</g>
<!-- HistoriquesPersonnages -->
<g id="node14" class="node"><title>HistoriquesPersonnages</title>
<path fill="none" stroke="black" d="M417.783,-1360.5C417.783,-1360.5 544.321,-1360.5 544.321,-1360.5 550.321,-1360.5 556.321,-1366.5 556.321,-1372.5 556.321,-1372.5 556.321,-1434.5 556.321,-1434.5 556.321,-1440.5 550.321,-1446.5 544.321,-1446.5 544.321,-1446.5 417.783,-1446.5 417.783,-1446.5 411.783,-1446.5 405.783,-1440.5 405.783,-1434.5 405.783,-1434.5 405.783,-1372.5 405.783,-1372.5 405.783,-1366.5 411.783,-1360.5 417.783,-1360.5"/>
<text text-anchor="middle" x="481.052" y="-1431.3" font-family="Times,serif" font-size="14.00">HistoriquesPersonnages</text>
<polyline fill="none" stroke="black" points="405.783,-1424.5 556.321,-1424.5 "/>
<text text-anchor="start" x="413.783" y="-1409.3" font-family="Times,serif" font-size="14.00">id :integer</text>
<text text-anchor="start" x="413.783" y="-1395.3" font-family="Times,serif" font-size="14.00">personnage_id :integer</text>
<text text-anchor="start" x="413.783" y="-1381.3" font-family="Times,serif" font-size="14.00">historique_id :integer</text>
<text text-anchor="start" x="413.783" y="-1367.3" font-family="Times,serif" font-size="14.00">niveau :integer</text>
</g>
<!-- HistoriquesPersonnages&#45;&gt;Historique -->
<g id="edge24" class="edge"><title>HistoriquesPersonnages&#45;&gt;Historique</title>
<path fill="none" stroke="#0a732b" d="M512.667,-1351.48C519.345,-1340.71 526.437,-1329.26 533.257,-1318.26"/>
<polygon fill="#0a732b" stroke="#0a732b" points="512.484,-1351.78 503.391,-1357.91 509.85,-1356.03 507.216,-1360.28 507.216,-1360.28 507.216,-1360.28 509.85,-1356.03 511.041,-1362.65 512.484,-1351.78 512.484,-1351.78"/>
<polygon fill="#0a732b" stroke="#0a732b" points="533.386,-1318.05 542.479,-1311.92 536.02,-1313.8 538.654,-1309.55 538.654,-1309.55 538.654,-1309.55 536.02,-1313.8 534.829,-1307.18 533.386,-1318.05 533.386,-1318.05"/>
</g>
<!-- HistoriquesPersonnages&#45;&gt;Personnage -->
<g id="edge23" class="edge"><title>HistoriquesPersonnages&#45;&gt;Personnage</title>
<path fill="none" stroke="#2260b3" d="M479.2,-1350.15C478.916,-1273.96 487.691,-1130.66 550.052,-1030 639.743,-885.23 785.413,-750.656 881.483,-670.492"/>
<polygon fill="#2260b3" stroke="#2260b3" points="479.202,-1350.45 474.795,-1360.49 479.249,-1355.45 479.295,-1360.45 479.295,-1360.45 479.295,-1360.45 479.249,-1355.45 483.795,-1360.4 479.202,-1350.45 479.202,-1350.45"/>
<polygon fill="#2260b3" stroke="#2260b3" points="881.485,-670.49 892.053,-667.561 885.331,-667.295 889.177,-664.1 889.177,-664.1 889.177,-664.1 885.331,-667.295 886.301,-660.639 881.485,-670.49 881.485,-670.49"/>
</g>
<!-- Lieu&#45;&gt;Personnage -->
<g id="edge25" class="edge"><title>Lieu&#45;&gt;Personnage</title>
<path fill="none" stroke="#f94f18" d="M689.168,-1028.7C738.195,-955.008 819.721,-832.474 883.687,-736.331"/>
<polygon fill="#f94f18" stroke="#f94f18" points="689.03,-1028.9 679.744,-1034.74 686.261,-1033.07 683.491,-1037.23 683.491,-1037.23 683.491,-1037.23 686.261,-1033.07 687.238,-1039.72 689.03,-1028.9 689.03,-1028.9"/>
<polygon fill="#f94f18" stroke="#f94f18" points="883.695,-736.32 892.981,-730.487 886.464,-732.157 889.234,-727.994 889.234,-727.994 889.234,-727.994 886.464,-732.157 885.487,-725.502 883.695,-736.32 883.695,-736.32"/>
</g>
<!-- LieusPersonnages -->
<g id="node16" class="node"><title>LieusPersonnages</title>
<path fill="none" stroke="black" d="M704.102,-1209.5C704.102,-1209.5 824.002,-1209.5 824.002,-1209.5 830.002,-1209.5 836.002,-1215.5 836.002,-1221.5 836.002,-1221.5 836.002,-1297.5 836.002,-1297.5 836.002,-1303.5 830.002,-1309.5 824.002,-1309.5 824.002,-1309.5 704.102,-1309.5 704.102,-1309.5 698.102,-1309.5 692.102,-1303.5 692.102,-1297.5 692.102,-1297.5 692.102,-1221.5 692.102,-1221.5 692.102,-1215.5 698.102,-1209.5 704.102,-1209.5"/>
<text text-anchor="middle" x="764.052" y="-1294.3" font-family="Times,serif" font-size="14.00">LieusPersonnages</text>
<polyline fill="none" stroke="black" points="692.102,-1287.5 836.002,-1287.5 "/>
<text text-anchor="start" x="700.102" y="-1272.3" font-family="Times,serif" font-size="14.00">id :integer</text>
<text text-anchor="start" x="700.102" y="-1258.3" font-family="Times,serif" font-size="14.00">personnage_id :integer</text>
<text text-anchor="start" x="700.102" y="-1244.3" font-family="Times,serif" font-size="14.00">lieu_id :integer</text>
<text text-anchor="start" x="700.102" y="-1230.3" font-family="Times,serif" font-size="14.00">nom :string</text>
<text text-anchor="start" x="700.102" y="-1216.3" font-family="Times,serif" font-size="14.00">description :text</text>
</g>
<!-- LieusPersonnages&#45;&gt;Lieu -->
<g id="edge27" class="edge"><title>LieusPersonnages&#45;&gt;Lieu</title>
<path fill="none" stroke="#3eb57d" d="M722.357,-1200.9C712.742,-1187.62 702.455,-1173.41 692.648,-1159.87"/>
<polygon fill="#3eb57d" stroke="#3eb57d" points="722.464,-1201.05 724.683,-1211.79 725.396,-1205.1 728.328,-1209.15 728.328,-1209.15 728.328,-1209.15 725.396,-1205.1 731.973,-1206.51 722.464,-1201.05 722.464,-1201.05"/>
<polygon fill="#3eb57d" stroke="#3eb57d" points="692.477,-1159.63 690.258,-1148.89 689.545,-1155.58 686.613,-1151.53 686.613,-1151.53 686.613,-1151.53 689.545,-1155.58 682.968,-1154.17 692.477,-1159.63 692.477,-1159.63"/>
</g>
<!-- LieusPersonnages&#45;&gt;Personnage -->
<g id="edge26" class="edge"><title>LieusPersonnages&#45;&gt;Personnage</title>
<path fill="none" stroke="#09f46e" d="M755.071,-1199.23C749.896,-1152.59 746.748,-1086.3 760.052,-1030 784.301,-927.386 836.656,-821.401 883.98,-739.681"/>
<polygon fill="#09f46e" stroke="#09f46e" points="755.071,-1199.23 751.768,-1209.69 755.654,-1204.2 756.237,-1209.16 756.237,-1209.16 756.237,-1209.16 755.654,-1204.2 760.706,-1208.64 755.071,-1199.23 755.071,-1199.23"/>
<polygon fill="#09f46e" stroke="#09f46e" points="884.094,-739.484 893.019,-733.112 886.613,-735.165 889.131,-730.846 889.131,-730.846 889.131,-730.846 886.613,-735.165 885.244,-728.579 884.094,-739.484 884.094,-739.484"/>
</g>
<!-- Objet -->
<g id="node17" class="node"><title>Objet</title>
<path fill="none" stroke="black" d="M739.102,-0.5C739.102,-0.5 859.002,-0.5 859.002,-0.5 865.002,-0.5 871.002,-6.5 871.002,-12.5 871.002,-12.5 871.002,-144.5 871.002,-144.5 871.002,-150.5 865.002,-156.5 859.002,-156.5 859.002,-156.5 739.102,-156.5 739.102,-156.5 733.102,-156.5 727.102,-150.5 727.102,-144.5 727.102,-144.5 727.102,-12.5 727.102,-12.5 727.102,-6.5 733.102,-0.5 739.102,-0.5"/>
<text text-anchor="middle" x="799.052" y="-141.3" font-family="Times,serif" font-size="14.00">Objet</text>
<polyline fill="none" stroke="black" points="727.102,-134.5 871.002,-134.5 "/>
<text text-anchor="start" x="735.102" y="-119.3" font-family="Times,serif" font-size="14.00">id :integer</text>
<text text-anchor="start" x="735.102" y="-105.3" font-family="Times,serif" font-size="14.00">name :string</text>
<text text-anchor="start" x="735.102" y="-91.3" font-family="Times,serif" font-size="14.00">description :text</text>
<text text-anchor="start" x="735.102" y="-77.3" font-family="Times,serif" font-size="14.00">niveau :integer</text>
<text text-anchor="start" x="735.102" y="-63.3" font-family="Times,serif" font-size="14.00">type :string</text>
<text text-anchor="start" x="735.102" y="-49.3" font-family="Times,serif" font-size="14.00">resonnance :string</text>
<text text-anchor="start" x="735.102" y="-35.3" font-family="Times,serif" font-size="14.00">personnage_id :integer</text>
<text text-anchor="start" x="735.102" y="-21.3" font-family="Times,serif" font-size="14.00">created_at :datetime</text>
<text text-anchor="start" x="735.102" y="-7.3" font-family="Times,serif" font-size="14.00">updated_at :datetime</text>
</g>
<!-- Objet&#45;&gt;Personnage -->
<g id="edge28" class="edge"><title>Objet&#45;&gt;Personnage</title>
<path fill="none" stroke="#bcf789" d="M834.51,-166.191C849.454,-206.508 867.57,-256.99 885.836,-308.968"/>
<polygon fill="#bcf789" stroke="#bcf789" points="834.465,-166.067 835.197,-155.126 832.722,-161.381 830.979,-156.694 830.979,-156.694 830.979,-156.694 832.722,-161.381 826.761,-158.263 834.465,-166.067 834.465,-166.067"/>
<polygon fill="#bcf789" stroke="#bcf789" points="885.95,-309.292 885.015,-320.218 887.606,-314.01 889.261,-318.728 889.261,-318.728 889.261,-318.728 887.606,-314.01 893.508,-317.238 885.95,-309.292 885.95,-309.292"/>
</g>
<!-- Organisation -->
<g id="node18" class="node"><title>Organisation</title>
<path fill="none" stroke="black" d="M781.546,-1030.5C781.546,-1030.5 890.557,-1030.5 890.557,-1030.5 896.557,-1030.5 902.557,-1036.5 902.557,-1042.5 902.557,-1042.5 902.557,-1146.5 902.557,-1146.5 902.557,-1152.5 896.557,-1158.5 890.557,-1158.5 890.557,-1158.5 781.546,-1158.5 781.546,-1158.5 775.546,-1158.5 769.546,-1152.5 769.546,-1146.5 769.546,-1146.5 769.546,-1042.5 769.546,-1042.5 769.546,-1036.5 775.546,-1030.5 781.546,-1030.5"/>
<text text-anchor="middle" x="836.052" y="-1143.3" font-family="Times,serif" font-size="14.00">Organisation</text>
<polyline fill="none" stroke="black" points="769.546,-1136.5 902.557,-1136.5 "/>
<text text-anchor="start" x="777.546" y="-1121.3" font-family="Times,serif" font-size="14.00">id :integer</text>
<text text-anchor="start" x="777.546" y="-1107.3" font-family="Times,serif" font-size="14.00">nom :string</text>
<text text-anchor="start" x="777.546" y="-1093.3" font-family="Times,serif" font-size="14.00">description :text</text>
<text text-anchor="start" x="777.546" y="-1079.3" font-family="Times,serif" font-size="14.00">type :string</text>
<text text-anchor="start" x="777.546" y="-1065.3" font-family="Times,serif" font-size="14.00">date :datetime</text>
<text text-anchor="start" x="777.546" y="-1051.3" font-family="Times,serif" font-size="14.00">created_at :datetime</text>
<text text-anchor="start" x="777.546" y="-1037.3" font-family="Times,serif" font-size="14.00">updated_at :datetime</text>
</g>
<!-- Organisation&#45;&gt;Personnage -->
<g id="edge29" class="edge"><title>Organisation&#45;&gt;Personnage</title>
<path fill="none" stroke="#4d2cd7" d="M856.788,-1020.63C865.185,-991.123 875.507,-954.85 886.553,-916.034"/>
<polygon fill="#4d2cd7" stroke="#4d2cd7" points="856.773,-1020.68 849.708,-1029.07 855.405,-1025.49 854.036,-1030.3 854.036,-1030.3 854.036,-1030.3 855.405,-1025.49 858.364,-1031.53 856.773,-1020.68 856.773,-1020.68"/>
<polygon fill="#4d2cd7" stroke="#4d2cd7" points="886.639,-915.731 893.704,-907.345 888.008,-910.922 889.376,-906.113 889.376,-906.113 889.376,-906.113 888.008,-910.922 885.048,-904.881 886.639,-915.731 886.639,-915.731"/>
</g>
<!-- OrganisationsPersonnages -->
<g id="node19" class="node"><title>OrganisationsPersonnages</title>
<path fill="none" stroke="black" d="M866.299,-1195.5C866.299,-1195.5 1005.8,-1195.5 1005.8,-1195.5 1011.8,-1195.5 1017.8,-1201.5 1017.8,-1207.5 1017.8,-1207.5 1017.8,-1311.5 1017.8,-1311.5 1017.8,-1317.5 1011.8,-1323.5 1005.8,-1323.5 1005.8,-1323.5 866.299,-1323.5 866.299,-1323.5 860.299,-1323.5 854.299,-1317.5 854.299,-1311.5 854.299,-1311.5 854.299,-1207.5 854.299,-1207.5 854.299,-1201.5 860.299,-1195.5 866.299,-1195.5"/>
<text text-anchor="middle" x="936.052" y="-1308.3" font-family="Times,serif" font-size="14.00">OrganisationsPersonnages</text>
<polyline fill="none" stroke="black" points="854.299,-1301.5 1017.8,-1301.5 "/>
<text text-anchor="start" x="862.299" y="-1286.3" font-family="Times,serif" font-size="14.00">id :integer</text>
<text text-anchor="start" x="862.299" y="-1272.3" font-family="Times,serif" font-size="14.00">personnage_id :integer</text>
<text text-anchor="start" x="862.299" y="-1258.3" font-family="Times,serif" font-size="14.00">organisation_id :integer</text>
<text text-anchor="start" x="862.299" y="-1244.3" font-family="Times,serif" font-size="14.00">nom :string</text>
<text text-anchor="start" x="862.299" y="-1230.3" font-family="Times,serif" font-size="14.00">description :text</text>
<text text-anchor="start" x="862.299" y="-1216.3" font-family="Times,serif" font-size="14.00">date_debut :datetime</text>
<text text-anchor="start" x="862.299" y="-1202.3" font-family="Times,serif" font-size="14.00">date_fin :datetime</text>
</g>
<!-- OrganisationsPersonnages&#45;&gt;Organisation -->
<g id="edge31" class="edge"><title>OrganisationsPersonnages&#45;&gt;Organisation</title>
<path fill="none" stroke="#241e7f" d="M892.123,-1186.9C888.151,-1180.42 884.127,-1173.86 880.154,-1167.39"/>
<polygon fill="#241e7f" stroke="#241e7f" points="892.16,-1186.96 893.553,-1197.83 894.774,-1191.22 897.389,-1195.48 897.389,-1195.48 897.389,-1195.48 894.774,-1191.22 901.225,-1193.13 892.16,-1186.96 892.16,-1186.96"/>
<polygon fill="#241e7f" stroke="#241e7f" points="880.006,-1167.14 878.612,-1156.27 877.391,-1162.88 874.776,-1158.62 874.776,-1158.62 874.776,-1158.62 877.391,-1162.88 870.941,-1160.97 880.006,-1167.14 880.006,-1167.14"/>
</g>
<!-- OrganisationsPersonnages&#45;&gt;Personnage -->
<g id="edge30" class="edge"><title>OrganisationsPersonnages&#45;&gt;Personnage</title>
<path fill="none" stroke="#db5e44" d="M940.484,-1185.24C943.21,-1140.41 946.794,-1081.89 950.052,-1030 950.595,-1021.35 951.146,-1012.6 951.702,-1003.78"/>
<polygon fill="#db5e44" stroke="#db5e44" points="940.47,-1185.47 935.372,-1195.18 940.167,-1190.46 939.863,-1195.45 939.863,-1195.45 939.863,-1195.45 940.167,-1190.46 944.355,-1195.73 940.47,-1185.47 940.47,-1185.47"/>
<polygon fill="#db5e44" stroke="#db5e44" points="951.702,-1003.77 956.823,-994.074 952.017,-998.781 952.332,-993.791 952.332,-993.791 952.332,-993.791 952.017,-998.781 947.841,-993.507 951.702,-1003.77 951.702,-1003.77"/>
</g>
<!-- Personnage&#45;&gt;Objet -->
<g id="edge36" class="edge"><title>Personnage&#45;&gt;Objet</title>
<path fill="none" stroke="#70b51f" d="M886.61,-349.755C863.599,-284.045 840.76,-217.128 824.133,-166.319"/>
<ellipse fill="none" stroke="#70b51f" cx="887.965" cy="-353.62" rx="4.00001" ry="4.00001"/>
<polygon fill="#70b51f" stroke="#70b51f" points="824.097,-166.209 825.276,-155.306 822.547,-161.455 820.997,-156.701 820.997,-156.701 820.997,-156.701 822.547,-161.455 816.719,-158.096 824.097,-166.209 824.097,-166.209"/>
</g>
<!-- Relation -->
<g id="node23" class="node"><title>Relation</title>
<path fill="none" stroke="black" d="M900.995,-7.5C900.995,-7.5 1055.11,-7.5 1055.11,-7.5 1061.11,-7.5 1067.11,-13.5 1067.11,-19.5 1067.11,-19.5 1067.11,-137.5 1067.11,-137.5 1067.11,-143.5 1061.11,-149.5 1055.11,-149.5 1055.11,-149.5 900.995,-149.5 900.995,-149.5 894.995,-149.5 888.995,-143.5 888.995,-137.5 888.995,-137.5 888.995,-19.5 888.995,-19.5 888.995,-13.5 894.995,-7.5 900.995,-7.5"/>
<text text-anchor="middle" x="978.052" y="-134.3" font-family="Times,serif" font-size="14.00">Relation</text>
<polyline fill="none" stroke="black" points="888.995,-127.5 1067.11,-127.5 "/>
<text text-anchor="start" x="896.995" y="-112.3" font-family="Times,serif" font-size="14.00">id :integer</text>
<text text-anchor="start" x="896.995" y="-98.3" font-family="Times,serif" font-size="14.00">name :string</text>
<text text-anchor="start" x="896.995" y="-84.3" font-family="Times,serif" font-size="14.00">description :text</text>
<text text-anchor="start" x="896.995" y="-70.3" font-family="Times,serif" font-size="14.00">date :datetime</text>
<text text-anchor="start" x="896.995" y="-56.3" font-family="Times,serif" font-size="14.00">to_personnage_id :integer</text>
<text text-anchor="start" x="896.995" y="-42.3" font-family="Times,serif" font-size="14.00">from_personnage_id :integer</text>
<text text-anchor="start" x="896.995" y="-28.3" font-family="Times,serif" font-size="14.00">created_at :datetime</text>
<text text-anchor="start" x="896.995" y="-14.3" font-family="Times,serif" font-size="14.00">updated_at :datetime</text>
</g>
<!-- Personnage&#45;&gt;Relation -->
<g id="edge34" class="edge"><title>Personnage&#45;&gt;Relation</title>
<path fill="none" stroke="#95594d" d="M972.468,-185.31C972.626,-176.339 972.8,-167.75 972.99,-159.619"/>
<ellipse fill="none" stroke="#95594d" cx="972.399" cy="-189.352" rx="4" ry="4"/>
<polygon fill="#95594d" stroke="#95594d" points="972.991,-159.567 977.738,-149.682 973.116,-154.569 973.24,-149.571 973.24,-149.571 973.24,-149.571 973.116,-154.569 968.741,-149.459 972.991,-159.567 972.991,-159.567"/>
</g>
<!-- Routine -->
<g id="node24" class="node"><title>Routine</title>
<path fill="none" stroke="black" d="M1333.55,-7.5C1333.55,-7.5 1442.56,-7.5 1442.56,-7.5 1448.56,-7.5 1454.56,-13.5 1454.56,-19.5 1454.56,-19.5 1454.56,-137.5 1454.56,-137.5 1454.56,-143.5 1448.56,-149.5 1442.56,-149.5 1442.56,-149.5 1333.55,-149.5 1333.55,-149.5 1327.55,-149.5 1321.55,-143.5 1321.55,-137.5 1321.55,-137.5 1321.55,-19.5 1321.55,-19.5 1321.55,-13.5 1327.55,-7.5 1333.55,-7.5"/>
<text text-anchor="middle" x="1388.05" y="-134.3" font-family="Times,serif" font-size="14.00">Routine</text>
<polyline fill="none" stroke="black" points="1321.55,-127.5 1454.56,-127.5 "/>
<text text-anchor="start" x="1329.55" y="-112.3" font-family="Times,serif" font-size="14.00">id :integer</text>
<text text-anchor="start" x="1329.55" y="-98.3" font-family="Times,serif" font-size="14.00">name :string</text>
<text text-anchor="start" x="1329.55" y="-84.3" font-family="Times,serif" font-size="14.00">description :text</text>
<text text-anchor="start" x="1329.55" y="-70.3" font-family="Times,serif" font-size="14.00">foci :text</text>
<text text-anchor="start" x="1329.55" y="-56.3" font-family="Times,serif" font-size="14.00">combinaison :string</text>
<text text-anchor="start" x="1329.55" y="-42.3" font-family="Times,serif" font-size="14.00">type :string</text>
<text text-anchor="start" x="1329.55" y="-28.3" font-family="Times,serif" font-size="14.00">created_at :datetime</text>
<text text-anchor="start" x="1329.55" y="-14.3" font-family="Times,serif" font-size="14.00">updated_at :datetime</text>
</g>
<!-- Personnage&#45;&gt;Routine -->
<g id="edge32" class="edge"><title>Personnage&#45;&gt;Routine</title>
<path fill="none" stroke="#0d84f7" d="M1073.21,-473.441C1150.89,-376.247 1258.43,-241.691 1325.58,-157.672"/>
<polygon fill="#0d84f7" stroke="#0d84f7" points="1073.01,-473.691 1063.25,-478.693 1069.88,-477.597 1066.76,-481.503 1066.76,-481.503 1066.76,-481.503 1069.88,-477.597 1070.28,-484.312 1073.01,-473.691 1073.01,-473.691"/>
<polygon fill="#0d84f7" stroke="#0d84f7" points="1325.7,-157.513 1335.46,-152.511 1328.82,-153.607 1331.95,-149.701 1331.95,-149.701 1331.95,-149.701 1328.82,-153.607 1328.43,-146.892 1325.7,-157.513 1325.7,-157.513"/>
</g>
<!-- Royaume -->
<g id="node25" class="node"><title>Royaume</title>
<path fill="none" stroke="black" d="M1521.55,-28.5C1521.55,-28.5 1630.56,-28.5 1630.56,-28.5 1636.56,-28.5 1642.56,-34.5 1642.56,-40.5 1642.56,-40.5 1642.56,-116.5 1642.56,-116.5 1642.56,-122.5 1636.56,-128.5 1630.56,-128.5 1630.56,-128.5 1521.55,-128.5 1521.55,-128.5 1515.55,-128.5 1509.55,-122.5 1509.55,-116.5 1509.55,-116.5 1509.55,-40.5 1509.55,-40.5 1509.55,-34.5 1515.55,-28.5 1521.55,-28.5"/>
<text text-anchor="middle" x="1576.05" y="-113.3" font-family="Times,serif" font-size="14.00">Royaume</text>
<polyline fill="none" stroke="black" points="1509.55,-106.5 1642.56,-106.5 "/>
<text text-anchor="start" x="1517.55" y="-91.3" font-family="Times,serif" font-size="14.00">id :integer</text>
<text text-anchor="start" x="1517.55" y="-77.3" font-family="Times,serif" font-size="14.00">nom :string</text>
<text text-anchor="start" x="1517.55" y="-63.3" font-family="Times,serif" font-size="14.00">description :text</text>
<text text-anchor="start" x="1517.55" y="-49.3" font-family="Times,serif" font-size="14.00">created_at :datetime</text>
<text text-anchor="start" x="1517.55" y="-35.3" font-family="Times,serif" font-size="14.00">updated_at :datetime</text>
</g>
<!-- Personnage&#45;&gt;Royaume -->
<g id="edge33" class="edge"><title>Personnage&#45;&gt;Royaume</title>
<path fill="none" stroke="#7c4c0c" d="M1074.71,-509.58C1197.4,-404.334 1405.7,-225.637 1510.99,-135.311"/>
<polygon fill="#7c4c0c" stroke="#7c4c0c" points="1074.52,-509.742 1064,-512.837 1070.73,-512.997 1066.93,-516.253 1066.93,-516.253 1066.93,-516.253 1070.73,-512.997 1069.86,-519.668 1074.52,-509.742 1074.52,-509.742"/>
<polygon fill="#7c4c0c" stroke="#7c4c0c" points="1511.11,-135.209 1521.63,-132.114 1514.91,-131.954 1518.7,-128.698 1518.7,-128.698 1518.7,-128.698 1514.91,-131.954 1515.77,-125.283 1511.11,-135.209 1511.11,-135.209"/>
</g>
<!-- Sphere -->
<g id="node26" class="node"><title>Sphere</title>
<path fill="none" stroke="black" d="M1097.1,-7.5C1097.1,-7.5 1217,-7.5 1217,-7.5 1223,-7.5 1229,-13.5 1229,-19.5 1229,-19.5 1229,-137.5 1229,-137.5 1229,-143.5 1223,-149.5 1217,-149.5 1217,-149.5 1097.1,-149.5 1097.1,-149.5 1091.1,-149.5 1085.1,-143.5 1085.1,-137.5 1085.1,-137.5 1085.1,-19.5 1085.1,-19.5 1085.1,-13.5 1091.1,-7.5 1097.1,-7.5"/>
<text text-anchor="middle" x="1157.05" y="-134.3" font-family="Times,serif" font-size="14.00">Sphere</text>
<polyline fill="none" stroke="black" points="1085.1,-127.5 1229,-127.5 "/>
<text text-anchor="start" x="1093.1" y="-112.3" font-family="Times,serif" font-size="14.00">id :integer</text>
<text text-anchor="start" x="1093.1" y="-98.3" font-family="Times,serif" font-size="14.00">name :string</text>
<text text-anchor="start" x="1093.1" y="-84.3" font-family="Times,serif" font-size="14.00">specialite :string</text>
<text text-anchor="start" x="1093.1" y="-70.3" font-family="Times,serif" font-size="14.00">description :text</text>
<text text-anchor="start" x="1093.1" y="-56.3" font-family="Times,serif" font-size="14.00">niveau :integer</text>
<text text-anchor="start" x="1093.1" y="-42.3" font-family="Times,serif" font-size="14.00">personnage_id :integer</text>
<text text-anchor="start" x="1093.1" y="-28.3" font-family="Times,serif" font-size="14.00">created_at :datetime</text>
<text text-anchor="start" x="1093.1" y="-14.3" font-family="Times,serif" font-size="14.00">updated_at :datetime</text>
</g>
<!-- Personnage&#45;&gt;Sphere -->
<g id="edge35" class="edge"><title>Personnage&#45;&gt;Sphere</title>
<path fill="none" stroke="#c05f27" d="M1069.55,-311.01C1089.13,-255.268 1108.58,-201.117 1124.18,-159.218"/>
<ellipse fill="none" stroke="#c05f27" cx="1068.17" cy="-314.954" rx="4.00001" ry="4.00001"/>
<polygon fill="#c05f27" stroke="#c05f27" points="1124.26,-159.022 1131.97,-151.231 1126.01,-154.339 1127.76,-149.655 1127.76,-149.655 1127.76,-149.655 1126.01,-154.339 1123.54,-148.08 1124.26,-159.022 1124.26,-159.022"/>
</g>
<!-- PersonnagesRoutines -->
<g id="node21" class="node"><title>PersonnagesRoutines</title>
<path fill="none" stroke="black" d="M1541.1,-1058.5C1541.1,-1058.5 1661,-1058.5 1661,-1058.5 1667,-1058.5 1673,-1064.5 1673,-1070.5 1673,-1070.5 1673,-1118.5 1673,-1118.5 1673,-1124.5 1667,-1130.5 1661,-1130.5 1661,-1130.5 1541.1,-1130.5 1541.1,-1130.5 1535.1,-1130.5 1529.1,-1124.5 1529.1,-1118.5 1529.1,-1118.5 1529.1,-1070.5 1529.1,-1070.5 1529.1,-1064.5 1535.1,-1058.5 1541.1,-1058.5"/>
<text text-anchor="middle" x="1601.05" y="-1115.3" font-family="Times,serif" font-size="14.00">PersonnagesRoutines</text>
<polyline fill="none" stroke="black" points="1529.1,-1108.5 1673,-1108.5 "/>
<text text-anchor="start" x="1537.1" y="-1093.3" font-family="Times,serif" font-size="14.00">id :integer</text>
<text text-anchor="start" x="1537.1" y="-1079.3" font-family="Times,serif" font-size="14.00">personnage_id :integer</text>
<text text-anchor="start" x="1537.1" y="-1065.3" font-family="Times,serif" font-size="14.00">routine_id :integer</text>
</g>
<!-- PersonnagesRoutines&#45;&gt;Personnage -->
<g id="edge37" class="edge"><title>PersonnagesRoutines&#45;&gt;Personnage</title>
<path fill="none" stroke="#2097a1" d="M1549.22,-1051.98C1444.96,-968.475 1208.46,-779.05 1074.78,-671.979"/>
<polygon fill="#2097a1" stroke="#2097a1" points="1549.44,-1052.16 1554.43,-1061.92 1553.34,-1055.29 1557.24,-1058.41 1557.24,-1058.41 1557.24,-1058.41 1553.34,-1055.29 1560.06,-1054.9 1549.44,-1052.16 1549.44,-1052.16"/>
<polygon fill="#2097a1" stroke="#2097a1" points="1074.73,-671.932 1069.73,-662.168 1070.82,-668.806 1066.92,-665.68 1066.92,-665.68 1066.92,-665.68 1070.82,-668.806 1064.11,-669.192 1074.73,-671.932 1074.73,-671.932"/>
</g>
<!-- PersonnagesRoutines&#45;&gt;Routine -->
<g id="edge38" class="edge"><title>PersonnagesRoutines&#45;&gt;Routine</title>
<path fill="none" stroke="#b1db7c" d="M1591.56,-1048.29C1558.4,-890.466 1447.52,-362.583 1404.92,-159.792"/>
<polygon fill="#b1db7c" stroke="#b1db7c" points="1591.6,-1048.51 1589.25,-1059.23 1592.63,-1053.41 1593.66,-1058.3 1593.66,-1058.3 1593.66,-1058.3 1592.63,-1053.41 1598.06,-1057.38 1591.6,-1048.51 1591.6,-1048.51"/>
<polygon fill="#b1db7c" stroke="#b1db7c" points="1404.88,-159.59 1407.22,-148.878 1403.85,-154.696 1402.82,-149.803 1402.82,-149.803 1402.82,-149.803 1403.85,-154.696 1398.42,-150.728 1404.88,-159.59 1404.88,-159.59"/>
</g>
<!-- PersonnagesRoyaumes -->
<g id="node22" class="node"><title>PersonnagesRoyaumes</title>
<path fill="none" stroke="black" d="M1702.51,-1051.5C1702.51,-1051.5 1823.6,-1051.5 1823.6,-1051.5 1829.6,-1051.5 1835.6,-1057.5 1835.6,-1063.5 1835.6,-1063.5 1835.6,-1125.5 1835.6,-1125.5 1835.6,-1131.5 1829.6,-1137.5 1823.6,-1137.5 1823.6,-1137.5 1702.51,-1137.5 1702.51,-1137.5 1696.51,-1137.5 1690.51,-1131.5 1690.51,-1125.5 1690.51,-1125.5 1690.51,-1063.5 1690.51,-1063.5 1690.51,-1057.5 1696.51,-1051.5 1702.51,-1051.5"/>
<text text-anchor="middle" x="1763.05" y="-1122.3" font-family="Times,serif" font-size="14.00">PersonnagesRoyaumes</text>
<polyline fill="none" stroke="black" points="1690.51,-1115.5 1835.6,-1115.5 "/>
<text text-anchor="start" x="1698.51" y="-1100.3" font-family="Times,serif" font-size="14.00">id :integer</text>
<text text-anchor="start" x="1698.51" y="-1086.3" font-family="Times,serif" font-size="14.00">personnage_id :integer</text>
<text text-anchor="start" x="1698.51" y="-1072.3" font-family="Times,serif" font-size="14.00">royaume_id :integer</text>
<text text-anchor="start" x="1698.51" y="-1058.3" font-family="Times,serif" font-size="14.00">niveau :integer</text>
</g>
<!-- PersonnagesRoyaumes&#45;&gt;Personnage -->
<g id="edge39" class="edge"><title>PersonnagesRoyaumes&#45;&gt;Personnage</title>
<path fill="none" stroke="#9f3f01" d="M1702.88,-1045.15C1695.94,-1039.93 1688.9,-1034.78 1682.05,-1030 1472.18,-883.495 1213.61,-730.067 1075.66,-650.249"/>
<polygon fill="#9f3f01" stroke="#9f3f01" points="1703.01,-1045.25 1708.25,-1054.89 1706.99,-1048.28 1710.97,-1051.3 1710.97,-1051.3 1710.97,-1051.3 1706.99,-1048.28 1713.69,-1047.72 1703.01,-1045.25 1703.01,-1045.25"/>
<polygon fill="#9f3f01" stroke="#9f3f01" points="1075.41,-650.103 1069.01,-641.203 1071.08,-647.601 1066.75,-645.099 1066.75,-645.099 1066.75,-645.099 1071.08,-647.601 1064.5,-648.995 1075.41,-650.103 1075.41,-650.103"/>
</g>
<!-- PersonnagesRoyaumes&#45;&gt;Royaume -->
<g id="edge40" class="edge"><title>PersonnagesRoyaumes&#45;&gt;Royaume</title>
<path fill="none" stroke="#813509" d="M1753.41,-1041.21C1721.65,-868.99 1620.45,-320.262 1586.94,-138.565"/>
<polygon fill="#813509" stroke="#813509" points="1753.44,-1041.39 1750.83,-1052.04 1754.35,-1046.3 1755.25,-1051.22 1755.25,-1051.22 1755.25,-1051.22 1754.35,-1046.3 1759.68,-1050.4 1753.44,-1041.39 1753.44,-1041.39"/>
<polygon fill="#813509" stroke="#813509" points="1586.93,-138.492 1589.54,-127.842 1586.02,-133.575 1585.12,-128.658 1585.12,-128.658 1585.12,-128.658 1586.02,-133.575 1580.69,-129.474 1586.93,-138.492 1586.93,-138.492"/>
</g>
<!-- Relation&#45;&gt;Personnage -->
<g id="edge41" class="edge"><title>Relation&#45;&gt;Personnage</title>
<path fill="none" stroke="#d280b1" d="M983.118,-159.803C983.291,-167.224 983.451,-175.027 983.597,-183.151"/>
<polygon fill="#d280b1" stroke="#d280b1" points="983.112,-159.567 987.362,-149.459 982.988,-154.569 982.864,-149.571 982.864,-149.571 982.864,-149.571 982.988,-154.569 978.365,-149.682 983.112,-159.567 983.112,-159.567"/>
<polygon fill="#d280b1" stroke="#d280b1" points="983.601,-183.353 979.272,-193.428 983.686,-188.352 983.772,-193.351 983.772,-193.351 983.772,-193.351 983.686,-188.352 988.271,-193.274 983.601,-183.353 983.601,-183.353"/>
</g>
<!-- Sphere&#45;&gt;Personnage -->
<g id="edge42" class="edge"><title>Sphere&#45;&gt;Personnage</title>
<path fill="none" stroke="#062a8d" d="M1134.22,-159.418C1117.61,-210.448 1094.05,-279.595 1070.23,-347.647"/>
<polygon fill="#062a8d" stroke="#062a8d" points="1134.26,-159.296 1141.63,-151.17 1135.8,-154.539 1137.35,-149.783 1137.35,-149.783 1137.35,-149.783 1135.8,-154.539 1133.06,-148.395 1134.26,-159.296 1134.26,-159.296"/>
<polygon fill="#062a8d" stroke="#062a8d" points="1070.12,-347.957 1062.57,-355.906 1068.47,-352.676 1066.82,-357.395 1066.82,-357.395 1066.82,-357.395 1068.47,-352.676 1071.06,-358.883 1070.12,-347.957 1070.12,-347.957"/>
</g>
</g>
</svg>
